M48
; DRILL file {KiCad 9.0.7} date 2026-03-26T15:11:01-0500
; FORMAT={-:-/ absolute / metric / decimal}
; #@! TF.CreationDate,2026-03-26T15:11:01-05:00
; #@! TF.GenerationSoftware,Kicad,Pcbnew,9.0.7
; #@! TF.FileFunction,Plated,1,2,PTH
FMAT,2
METRIC
; #@! TA.AperFunction,Plated,PTH,ViaDrill
T1C0.300
; #@! TA.AperFunction,Plated,PTH,ComponentDrill
T2C0.300
; #@! TA.AperFunction,Plated,PTH,ComponentDrill
T3C0.800
; #@! TA.AperFunction,Plated,PTH,ComponentDrill
T4C0.990
; #@! TA.AperFunction,Plated,PTH,ComponentDrill
T5C1.000
; #@! TA.AperFunction,Plated,PTH,ComponentDrill
T6C1.190
; #@! TA.AperFunction,Plated,PTH,ComponentDrill
T7C1.300
%
G90
G05
T1
X128.24Y-60.5
X129.25Y-64.75
X130.25Y-61.75
X134.5Y-60.5
X135.25Y-100.25
X135.9Y-60.6
X135.9Y-62.0
X136.75Y-99.25
X137.3Y-61.8
X139.24Y-87.723
X139.5Y-61.973
X143.0Y-69.0
X143.64Y-90.0
X146.25Y-48.723
X146.5Y-80.75
X146.5Y-82.0
X146.5Y-100.75
X147.25Y-69.0
X147.25Y-99.25
X148.3Y-55.521
X148.3Y-61.0
X149.25Y-61.723
X153.3Y-85.723
X156.5Y-87.723
X158.7Y-87.723
X164.3Y-85.723
X167.5Y-91.723
X168.44Y-93.723
X169.75Y-87.723
X171.25Y-90.0
T2
X150.461Y-79.466
X150.461Y-80.766
X150.461Y-82.066
X150.461Y-83.366
X151.761Y-79.466
X151.761Y-80.766
X151.761Y-82.066
X151.761Y-83.366
T3
X130.4Y-84.92
X130.4Y-87.46
X130.4Y-90.0
X130.4Y-92.54
X130.4Y-95.08
X194.6Y-84.92
X194.6Y-87.46
X194.6Y-90.0
X194.6Y-92.54
X194.6Y-95.08
T4
X131.14Y-111.921
X131.14Y-118.421
X135.64Y-111.921
X135.64Y-118.421
X148.59Y-111.671
X148.59Y-118.171
X153.09Y-111.671
X153.09Y-118.171
T5
X139.0Y-127.168
X139.0Y-129.708
X141.54Y-127.168
X141.54Y-129.708
X144.08Y-127.168
X144.08Y-129.708
X154.943Y-53.26
X154.943Y-55.8
X154.943Y-58.34
X157.483Y-53.26
X157.483Y-55.8
X157.483Y-58.34
T6
X140.9Y-114.921
X143.44Y-114.921
X158.565Y-114.941
X161.105Y-114.941
T7
X152.25Y-96.75
X157.33Y-96.75
M30
