%TF.GenerationSoftware,KiCad,Pcbnew,9.0.7*%
%TF.CreationDate,2026-03-26T15:11:17-05:00*%
%TF.ProjectId,fader-module,66616465-722d-46d6-9f64-756c652e6b69,rev?*%
%TF.SameCoordinates,Original*%
%TF.FileFunction,Paste,Top*%
%TF.FilePolarity,Positive*%
%FSLAX46Y46*%
G04 Gerber Fmt 4.6, Leading zero omitted, Abs format (unit mm)*
G04 Created by KiCad (PCBNEW 9.0.7) date 2026-03-26 15:11:17*
%MOMM*%
%LPD*%
G01*
G04 APERTURE LIST*
G04 Aperture macros list*
%AMRoundRect*
0 Rectangle with rounded corners*
0 $1 Rounding radius*
0 $2 $3 $4 $5 $6 $7 $8 $9 X,Y pos of 4 corners*
0 Add a 4 corners polygon primitive as box body*
4,1,4,$2,$3,$4,$5,$6,$7,$8,$9,$2,$3,0*
0 Add four circle primitives for the rounded corners*
1,1,$1+$1,$2,$3*
1,1,$1+$1,$4,$5*
1,1,$1+$1,$6,$7*
1,1,$1+$1,$8,$9*
0 Add four rect primitives between the rounded corners*
20,1,$1+$1,$2,$3,$4,$5,0*
20,1,$1+$1,$4,$5,$6,$7,0*
20,1,$1+$1,$6,$7,$8,$9,0*
20,1,$1+$1,$8,$9,$2,$3,0*%
G04 Aperture macros list end*
%ADD10C,0.010000*%
%ADD11RoundRect,0.250000X0.337500X0.475000X-0.337500X0.475000X-0.337500X-0.475000X0.337500X-0.475000X0*%
%ADD12RoundRect,0.250000X0.475000X-0.337500X0.475000X0.337500X-0.475000X0.337500X-0.475000X-0.337500X0*%
%ADD13RoundRect,0.250000X0.412500X0.650000X-0.412500X0.650000X-0.412500X-0.650000X0.412500X-0.650000X0*%
%ADD14RoundRect,0.250000X0.450000X-0.350000X0.450000X0.350000X-0.450000X0.350000X-0.450000X-0.350000X0*%
%ADD15RoundRect,0.250000X-0.450000X0.350000X-0.450000X-0.350000X0.450000X-0.350000X0.450000X0.350000X0*%
%ADD16RoundRect,0.250000X-0.337500X-0.475000X0.337500X-0.475000X0.337500X0.475000X-0.337500X0.475000X0*%
%ADD17RoundRect,0.250000X-0.350000X-0.450000X0.350000X-0.450000X0.350000X0.450000X-0.350000X0.450000X0*%
%ADD18RoundRect,0.015000X-0.760000X-0.285000X0.760000X-0.285000X0.760000X0.285000X-0.760000X0.285000X0*%
%ADD19RoundRect,0.145750X-0.129250X0.654250X-0.129250X-0.654250X0.129250X-0.654250X0.129250X0.654250X0*%
%ADD20RoundRect,0.145750X-0.654250X0.129250X-0.654250X-0.129250X0.654250X-0.129250X0.654250X0.129250X0*%
G04 APERTURE END LIST*
D10*
%TO.C,U7*%
X152466000Y-83116000D02*
X149756000Y-83116000D01*
X149756000Y-79716000D01*
X152466000Y-79716000D01*
X152466000Y-83116000D01*
G36*
X152466000Y-83116000D02*
G01*
X149756000Y-83116000D01*
X149756000Y-79716000D01*
X152466000Y-79716000D01*
X152466000Y-83116000D01*
G37*
%TD*%
D11*
%TO.C,C8*%
X153827500Y-125496000D03*
X151752500Y-125496000D03*
%TD*%
D12*
%TO.C,C11*%
X160700000Y-83355000D03*
X160700000Y-81280000D03*
%TD*%
D13*
%TO.C,C5*%
X165145000Y-78200000D03*
X162020000Y-78200000D03*
%TD*%
D14*
%TO.C,R3*%
X134683000Y-58440000D03*
X134683000Y-56440000D03*
%TD*%
D15*
%TO.C,R2*%
X148640000Y-105721000D03*
X148640000Y-107721000D03*
%TD*%
%TO.C,R7*%
X158440000Y-106521000D03*
X158440000Y-108521000D03*
%TD*%
%TO.C,R6*%
X141640000Y-106721000D03*
X141640000Y-108721000D03*
%TD*%
D12*
%TO.C,C6*%
X163494000Y-83355000D03*
X163494000Y-81280000D03*
%TD*%
D16*
%TO.C,C10*%
X142706806Y-48573000D03*
X144781806Y-48573000D03*
%TD*%
D11*
%TO.C,C14*%
X139955806Y-63432000D03*
X137880806Y-63432000D03*
%TD*%
%TO.C,C9*%
X140293806Y-48446000D03*
X138218806Y-48446000D03*
%TD*%
D17*
%TO.C,R1*%
X134040000Y-109121000D03*
X136040000Y-109121000D03*
%TD*%
%TO.C,R16*%
X144731000Y-74065000D03*
X146731000Y-74065000D03*
%TD*%
D11*
%TO.C,C12*%
X135937500Y-121000000D03*
X133862500Y-121000000D03*
%TD*%
%TO.C,C7*%
X159427500Y-124846000D03*
X157352500Y-124846000D03*
%TD*%
D14*
%TO.C,R15*%
X144826000Y-78764000D03*
X144826000Y-76764000D03*
%TD*%
%TO.C,R17*%
X149235000Y-65305000D03*
X149235000Y-63305000D03*
%TD*%
D18*
%TO.C,U7*%
X148411000Y-79511000D03*
X148411000Y-80781000D03*
X148411000Y-82051000D03*
X148411000Y-83321000D03*
X153811000Y-83321000D03*
X153811000Y-82051000D03*
X153811000Y-80781000D03*
X153811000Y-79511000D03*
%TD*%
D14*
%TO.C,R5*%
X151000000Y-130321000D03*
X151000000Y-128321000D03*
%TD*%
D17*
%TO.C,R9*%
X151100000Y-109000000D03*
X153100000Y-109000000D03*
%TD*%
D19*
%TO.C,U5*%
X145168806Y-51886000D03*
X144368806Y-51886000D03*
X143568806Y-51886000D03*
X142768806Y-51886000D03*
X141968806Y-51886000D03*
X141168806Y-51886000D03*
X140368806Y-51886000D03*
X139568806Y-51886000D03*
D20*
X138188806Y-53266000D03*
X138188806Y-54066000D03*
X138188806Y-54866000D03*
X138188806Y-55666000D03*
X138188806Y-56466000D03*
X138188806Y-57266000D03*
X138188806Y-58066000D03*
X138188806Y-58866000D03*
D19*
X139568806Y-60246000D03*
X140368806Y-60246000D03*
X141168806Y-60246000D03*
X141968806Y-60246000D03*
X142768806Y-60246000D03*
X143568806Y-60246000D03*
X144368806Y-60246000D03*
X145168806Y-60246000D03*
D20*
X146548806Y-58866000D03*
X146548806Y-58066000D03*
X146548806Y-57266000D03*
X146548806Y-56466000D03*
X146548806Y-55666000D03*
X146548806Y-54866000D03*
X146548806Y-54066000D03*
X146548806Y-53266000D03*
%TD*%
D14*
%TO.C,R4*%
X153615000Y-130346000D03*
X153615000Y-128346000D03*
%TD*%
%TO.C,R14*%
X144826000Y-83844000D03*
X144826000Y-81844000D03*
%TD*%
D16*
%TO.C,C4*%
X143130806Y-63432000D03*
X145205806Y-63432000D03*
%TD*%
D15*
%TO.C,R8*%
X131240000Y-106121000D03*
X131240000Y-108121000D03*
%TD*%
D11*
%TO.C,C1*%
X153240000Y-120921000D03*
X151165000Y-120921000D03*
%TD*%
D12*
%TO.C,C16*%
X133400000Y-90075000D03*
X133400000Y-88000000D03*
%TD*%
M02*
