%TF.GenerationSoftware,KiCad,Pcbnew,9.0.7*%
%TF.CreationDate,2026-03-26T15:32:29-05:00*%
%TF.ProjectId,fader-module,66616465-722d-46d6-9f64-756c652e6b69,rev?*%
%TF.SameCoordinates,Original*%
%TF.FileFunction,Soldermask,Bot*%
%TF.FilePolarity,Negative*%
%FSLAX46Y46*%
G04 Gerber Fmt 4.6, Leading zero omitted, Abs format (unit mm)*
G04 Created by KiCad (PCBNEW 9.0.7) date 2026-03-26 15:32:29*
%MOMM*%
%LPD*%
G01*
G04 APERTURE LIST*
G04 Aperture macros list*
%AMRoundRect*
0 Rectangle with rounded corners*
0 $1 Rounding radius*
0 $2 $3 $4 $5 $6 $7 $8 $9 X,Y pos of 4 corners*
0 Add a 4 corners polygon primitive as box body*
4,1,4,$2,$3,$4,$5,$6,$7,$8,$9,$2,$3,0*
0 Add four circle primitives for the rounded corners*
1,1,$1+$1,$2,$3*
1,1,$1+$1,$4,$5*
1,1,$1+$1,$6,$7*
1,1,$1+$1,$8,$9*
0 Add four rect primitives between the rounded corners*
20,1,$1+$1,$2,$3,$4,$5,0*
20,1,$1+$1,$4,$5,$6,$7,0*
20,1,$1+$1,$6,$7,$8,$9,0*
20,1,$1+$1,$8,$9,$2,$3,0*%
G04 Aperture macros list end*
%ADD10RoundRect,0.264706X0.635294X0.635294X-0.635294X0.635294X-0.635294X-0.635294X0.635294X-0.635294X0*%
%ADD11C,1.800000*%
%ADD12C,1.900000*%
%ADD13RoundRect,0.050000X-0.749000X0.749000X-0.749000X-0.749000X0.749000X-0.749000X0.749000X0.749000X0*%
%ADD14C,1.598000*%
%ADD15C,3.300000*%
%ADD16RoundRect,0.264368X-0.655632X-0.880632X0.655632X-0.880632X0.655632X0.880632X-0.655632X0.880632X0*%
%ADD17O,1.840000X2.290000*%
%ADD18C,0.704000*%
%ADD19RoundRect,0.259616X-1.090384X-1.090384X1.090384X-1.090384X1.090384X1.090384X-1.090384X1.090384X0*%
%ADD20C,2.700000*%
%ADD21RoundRect,0.264706X-0.635294X0.635294X-0.635294X-0.635294X0.635294X-0.635294X0.635294X0.635294X0*%
G04 APERTURE END LIST*
D10*
%TO.C,J6*%
X157483000Y-58340000D03*
D11*
X154943000Y-58340000D03*
X157483000Y-55800000D03*
X154943000Y-55800000D03*
X157483000Y-53260000D03*
X154943000Y-53260000D03*
%TD*%
D12*
%TO.C,J1*%
X130400000Y-84920000D03*
X130400000Y-87460000D03*
X130400000Y-90000000D03*
X130400000Y-92540000D03*
X130400000Y-95080000D03*
%TD*%
D13*
%TO.C,SW2*%
X153090000Y-111671000D03*
D14*
X153090000Y-118171000D03*
X148590000Y-111671000D03*
X148590000Y-118171000D03*
%TD*%
D15*
%TO.C,H1*%
X130000000Y-45000000D03*
%TD*%
%TO.C,H4*%
X130000000Y-135000000D03*
%TD*%
%TO.C,H2*%
X195000000Y-44900000D03*
%TD*%
D16*
%TO.C,D1*%
X140900000Y-114921000D03*
D17*
X143440000Y-114921000D03*
%TD*%
D16*
%TO.C,D2*%
X158565000Y-114941000D03*
D17*
X161105000Y-114941000D03*
%TD*%
D15*
%TO.C,H3*%
X195000000Y-135000000D03*
%TD*%
D13*
%TO.C,SW1*%
X135640000Y-111921000D03*
D14*
X135640000Y-118421000D03*
X131140000Y-111921000D03*
X131140000Y-118421000D03*
%TD*%
D18*
%TO.C,U7*%
X150461000Y-79466000D03*
X151761000Y-79466000D03*
X150461000Y-80766000D03*
X151761000Y-80766000D03*
X150461000Y-82066000D03*
X151761000Y-82066000D03*
X150461000Y-83366000D03*
X151761000Y-83366000D03*
%TD*%
D12*
%TO.C,J2*%
X194600000Y-84920000D03*
X194600000Y-87460000D03*
X194600000Y-90000000D03*
X194600000Y-92540000D03*
X194600000Y-95080000D03*
%TD*%
D19*
%TO.C,J3*%
X152250000Y-96750000D03*
D20*
X157330000Y-96750000D03*
%TD*%
D21*
%TO.C,J4*%
X144080000Y-127168500D03*
D11*
X144080000Y-129708500D03*
X141540000Y-127168500D03*
X141540000Y-129708500D03*
X139000000Y-127168500D03*
X139000000Y-129708500D03*
%TD*%
M02*
